<?xml version="1.0" encoding="utf-8"?>
<!-- Generator: Adobe Illustrator 25.4.1, SVG Export Plug-In . SVG Version: 6.00 Build 0)  -->
<svg version="1.1" id="Layer_1" xmlns="http://www.w3.org/2000/svg" xmlns:xlink="http://www.w3.org/1999/xlink" x="0px" y="0px"
	 viewBox="0 0 1618 540" style="enable-background:new 0 0 1618 540;" xml:space="preserve">
<style type="text/css">
	.st0{fill:#FFFFFF;stroke:#BABABA;stroke-width:1.44;stroke-linecap:round;stroke-miterlimit:3.9643;}
	.st1{fill:none;stroke:#BABABA;stroke-width:1.437;stroke-linecap:round;stroke-miterlimit:3.9643;}
	.st2{fill:#BABABA;}
	.st3{font-family:'ArialRoundedMTBold';}
	.st4{font-size:15px;}
	.st5{enable-background:new    ;}
	.st6{font-family:'MyriadPro-Regular';}
	.st7{fill:none;stroke:#BABABA;stroke-width:1.4258;stroke-linecap:round;stroke-miterlimit:3.9643;}
	.st8{fill:#1C1C1C;}
	.st9{font-size:25px;}
</style>
<g id="layer2" transform="translate(-3.40625,19.60625)">
	<path id="rect4322" class="st0" d="M43.57,17.63h1537.54c6.71,0,12.15,5.44,12.15,12.15v440.44c0,6.71-5.44,12.15-12.15,12.15
		H43.57c-6.71,0-12.15-5.44-12.15-12.15V29.78C31.42,23.07,36.86,17.63,43.57,17.63z"/>
</g>
<path id="rect4329-0" class="st1" d="M54.42,61.45h56.22c1.38,0,2.49,1.12,2.49,2.49v56.22c0,1.38-1.12,2.49-2.49,2.49H54.42
	c-1.38,0-2.49-1.12-2.49-2.49V63.94C51.93,62.56,53.04,61.45,54.42,61.45z"/>
<path id="use7991" class="st1" d="M189.42,61.45h56.22c1.38,0,2.49,1.12,2.49,2.49v56.22c0,1.38-1.12,2.49-2.49,2.49h-56.22
	c-1.38,0-2.49-1.12-2.49-2.49V63.94C186.93,62.56,188.04,61.45,189.42,61.45z"/>
<path id="use7993" class="st1" d="M256.92,61.45h56.22c1.38,0,2.49,1.12,2.49,2.49v56.22c0,1.38-1.12,2.49-2.49,2.49h-56.22
	c-1.38,0-2.49-1.12-2.49-2.49V63.94C254.43,62.56,255.55,61.45,256.92,61.45z"/>
<path id="use7995" class="st1" d="M324.43,61.45h56.22c1.38,0,2.49,1.12,2.49,2.49v56.22c0,1.38-1.12,2.49-2.49,2.49h-56.22
	c-1.38,0-2.49-1.12-2.49-2.49V63.94C321.93,62.56,323.05,61.45,324.43,61.45z"/>
<path id="use7997" class="st1" d="M391.93,61.45h56.22c1.38,0,2.49,1.12,2.49,2.49v56.22c0,1.38-1.12,2.49-2.49,2.49h-56.22
	c-1.38,0-2.49-1.12-2.49-2.49V63.94C389.44,62.56,390.55,61.45,391.93,61.45z"/>
<path id="use7999" class="st1" d="M493.17,61.45h56.22c1.38,0,2.49,1.12,2.49,2.49v56.22c0,1.38-1.12,2.49-2.49,2.49h-56.22
	c-1.38,0-2.49-1.12-2.49-2.49V63.94C490.68,62.56,491.79,61.45,493.17,61.45z"/>
<path id="use8001" class="st1" d="M560.67,61.45h56.22c1.38,0,2.49,1.12,2.49,2.49v56.22c0,1.38-1.12,2.49-2.49,2.49h-56.22
	c-1.38,0-2.49-1.12-2.49-2.49V63.94C558.18,62.56,559.3,61.45,560.67,61.45z"/>
<path id="use8003" class="st1" d="M628.18,61.45h56.22c1.38,0,2.49,1.12,2.49,2.49v56.22c0,1.38-1.12,2.49-2.49,2.49h-56.22
	c-1.38,0-2.49-1.12-2.49-2.49V63.94C625.68,62.56,626.8,61.45,628.18,61.45z"/>
<path id="use8005" class="st1" d="M695.68,61.45h56.22c1.38,0,2.49,1.12,2.49,2.49v56.22c0,1.38-1.12,2.49-2.49,2.49h-56.22
	c-1.38,0-2.49-1.12-2.49-2.49V63.94C693.19,62.56,694.3,61.45,695.68,61.45z"/>
<path id="use8007" class="st1" d="M796.92,61.45h56.22c1.38,0,2.49,1.12,2.49,2.49v56.22c0,1.38-1.12,2.49-2.49,2.49h-56.22
	c-1.38,0-2.49-1.12-2.49-2.49V63.94C794.43,62.56,795.54,61.45,796.92,61.45z"/>
<path id="use8009" class="st1" d="M864.42,61.45h56.22c1.38,0,2.49,1.12,2.49,2.49v56.22c0,1.38-1.12,2.49-2.49,2.49h-56.22
	c-1.38,0-2.49-1.12-2.49-2.49V63.94C861.93,62.56,863.05,61.45,864.42,61.45z"/>
<path id="use8011" class="st1" d="M931.93,61.45h56.22c1.38,0,2.49,1.12,2.49,2.49v56.22c0,1.38-1.12,2.49-2.49,2.49h-56.22
	c-1.38,0-2.49-1.12-2.49-2.49V63.94C929.43,62.56,930.55,61.45,931.93,61.45z"/>
<path id="use8013" class="st1" d="M999.43,61.45h56.22c1.38,0,2.49,1.12,2.49,2.49v56.22c0,1.38-1.12,2.49-2.49,2.49h-56.22
	c-1.38,0-2.49-1.12-2.49-2.49V63.94C996.94,62.56,998.05,61.45,999.43,61.45z"/>
<path id="rect8063" class="st1" d="M54.42,146.59h56.22c1.38,0,2.49,1.12,2.49,2.49v56.22c0,1.38-1.12,2.49-2.49,2.49H54.42
	c-1.38,0-2.49-1.12-2.49-2.49v-56.22C51.93,147.7,53.04,146.59,54.42,146.59z"/>
<path id="use8067" class="st1" d="M121.92,146.59h56.22c1.38,0,2.49,1.12,2.49,2.49v56.22c0,1.38-1.12,2.49-2.49,2.49h-56.22
	c-1.38,0-2.49-1.12-2.49-2.49v-56.22C119.43,147.7,120.55,146.59,121.92,146.59z"/>
<path id="use8069" class="st1" d="M189.43,146.59h56.22c1.38,0,2.49,1.12,2.49,2.49v56.22c0,1.38-1.12,2.49-2.49,2.49h-56.22
	c-1.38,0-2.49-1.12-2.49-2.49v-56.22C186.93,147.7,188.05,146.59,189.43,146.59z"/>
<path id="use8071" class="st1" d="M256.93,146.59h56.22c1.38,0,2.49,1.12,2.49,2.49v56.22c0,1.38-1.12,2.49-2.49,2.49h-56.22
	c-1.38,0-2.49-1.12-2.49-2.49v-56.22C254.44,147.7,255.55,146.59,256.93,146.59z"/>
<path id="use8073" class="st1" d="M324.43,146.59h56.22c1.38,0,2.49,1.12,2.49,2.49v56.22c0,1.38-1.12,2.49-2.49,2.49h-56.22
	c-1.38,0-2.49-1.12-2.49-2.49v-56.22C321.94,147.7,323.06,146.59,324.43,146.59z"/>
<path id="use8075" class="st1" d="M391.94,146.59h56.22c1.38,0,2.49,1.12,2.49,2.49v56.22c0,1.38-1.12,2.49-2.49,2.49h-56.22
	c-1.38,0-2.49-1.12-2.49-2.49v-56.22C389.44,147.7,390.56,146.59,391.94,146.59z"/>
<path id="use8077" class="st1" d="M459.44,146.59h56.22c1.38,0,2.49,1.12,2.49,2.49v56.22c0,1.38-1.12,2.49-2.49,2.49h-56.22
	c-1.38,0-2.49-1.12-2.49-2.49v-56.22C456.95,147.7,458.06,146.59,459.44,146.59z"/>
<path id="use8079" class="st1" d="M526.94,146.59h56.22c1.38,0,2.49,1.12,2.49,2.49v56.22c0,1.38-1.12,2.49-2.49,2.49h-56.22
	c-1.38,0-2.49-1.12-2.49-2.49v-56.22C524.45,147.7,525.57,146.59,526.94,146.59z"/>
<path id="use8081" class="st1" d="M594.45,146.59h56.22c1.38,0,2.49,1.12,2.49,2.49v56.22c0,1.38-1.12,2.49-2.49,2.49h-56.22
	c-1.38,0-2.49-1.12-2.49-2.49v-56.22C591.95,147.7,593.07,146.59,594.45,146.59z"/>
<path id="use8083" class="st1" d="M661.95,146.59h56.22c1.38,0,2.49,1.12,2.49,2.49v56.22c0,1.38-1.12,2.49-2.49,2.49h-56.22
	c-1.38,0-2.49-1.12-2.49-2.49v-56.22C659.46,147.7,660.57,146.59,661.95,146.59z"/>
<path id="use8085" class="st1" d="M729.45,146.59h56.22c1.38,0,2.49,1.12,2.49,2.49v56.22c0,1.38-1.12,2.49-2.49,2.49h-56.22
	c-1.38,0-2.49-1.12-2.49-2.49v-56.22C726.96,147.7,728.07,146.59,729.45,146.59z"/>
<path id="use8087" class="st1" d="M796.95,146.59h56.22c1.38,0,2.49,1.12,2.49,2.49v56.22c0,1.38-1.12,2.49-2.49,2.49h-56.22
	c-1.38,0-2.49-1.12-2.49-2.49v-56.22C794.46,147.7,795.58,146.59,796.95,146.59z"/>
<path id="use8089" class="st1" d="M864.46,146.59h56.22c1.38,0,2.49,1.12,2.49,2.49v56.22c0,1.38-1.12,2.49-2.49,2.49h-56.22
	c-1.38,0-2.49-1.12-2.49-2.49v-56.22C861.96,147.7,863.08,146.59,864.46,146.59z"/>
<path id="use8091" class="st1" d="M931.96,146.59h123.72c1.38,0,2.49,1.12,2.49,2.49v56.22c0,1.38-1.12,2.49-2.49,2.49H931.96
	c-1.38,0-2.49-1.12-2.49-2.49v-56.22C929.47,147.7,930.58,146.59,931.96,146.59z"/>
<path id="use8121" class="st1" d="M54.42,214.09h90.96c1.38,0,2.49,1.12,2.49,2.49v56.22c0,1.38-1.12,2.49-2.49,2.49H54.42
	c-1.38,0-2.49-1.12-2.49-2.49v-56.22C51.93,215.2,53.04,214.09,54.42,214.09z"/>
<path id="use8123" class="st1" d="M156.66,214.09h56.22c1.38,0,2.49,1.12,2.49,2.49v56.22c0,1.38-1.12,2.49-2.49,2.49h-56.22
	c-1.38,0-2.49-1.12-2.49-2.49v-56.22C154.17,215.2,155.28,214.09,156.66,214.09z"/>
<path id="use8125" class="st1" d="M224.16,214.09h56.22c1.38,0,2.49,1.12,2.49,2.49v56.22c0,1.38-1.12,2.49-2.49,2.49h-56.22
	c-1.38,0-2.49-1.12-2.49-2.49v-56.22C221.67,215.2,222.79,214.09,224.16,214.09z"/>
<path id="use8127" class="st1" d="M291.67,214.09h56.22c1.38,0,2.49,1.12,2.49,2.49v56.22c0,1.38-1.12,2.49-2.49,2.49h-56.22
	c-1.38,0-2.49-1.12-2.49-2.49v-56.22C289.17,215.2,290.29,214.09,291.67,214.09z"/>
<path id="use8129" class="st1" d="M359.17,214.09h56.22c1.38,0,2.49,1.12,2.49,2.49v56.22c0,1.38-1.12,2.49-2.49,2.49h-56.22
	c-1.38,0-2.49-1.12-2.49-2.49v-56.22C356.68,215.2,357.79,214.09,359.17,214.09z"/>
<path id="use8131" class="st1" d="M426.67,214.09h56.22c1.38,0,2.49,1.12,2.49,2.49v56.22c0,1.38-1.12,2.49-2.49,2.49h-56.22
	c-1.38,0-2.49-1.12-2.49-2.49v-56.22C424.18,215.2,425.3,214.09,426.67,214.09z"/>
<path id="use8133" class="st1" d="M494.18,214.09h56.22c1.38,0,2.49,1.12,2.49,2.49v56.22c0,1.38-1.12,2.49-2.49,2.49h-56.22
	c-1.38,0-2.49-1.12-2.49-2.49v-56.22C491.68,215.2,492.8,214.09,494.18,214.09z"/>
<path id="use8135" class="st1" d="M561.68,214.09h56.22c1.38,0,2.49,1.12,2.49,2.49v56.22c0,1.38-1.12,2.49-2.49,2.49h-56.22
	c-1.38,0-2.49-1.12-2.49-2.49v-56.22C559.19,215.2,560.3,214.09,561.68,214.09z"/>
<path id="use8137" class="st1" d="M629.18,214.09h56.22c1.38,0,2.49,1.12,2.49,2.49v56.22c0,1.38-1.12,2.49-2.49,2.49h-56.22
	c-1.38,0-2.49-1.12-2.49-2.49v-56.22C626.69,215.2,627.81,214.09,629.18,214.09z"/>
<path id="use8139" class="st1" d="M696.69,214.09h56.22c1.38,0,2.49,1.12,2.49,2.49v56.22c0,1.38-1.12,2.49-2.49,2.49h-56.22
	c-1.38,0-2.49-1.12-2.49-2.49v-56.22C694.19,215.2,695.31,214.09,696.69,214.09z"/>
<path id="use8141" class="st1" d="M764.19,214.09h56.22c1.38,0,2.49,1.12,2.49,2.49v56.22c0,1.38-1.12,2.49-2.49,2.49h-56.22
	c-1.38,0-2.49-1.12-2.49-2.49v-56.22C761.7,215.2,762.81,214.09,764.19,214.09z"/>
<path id="use8143" class="st1" d="M831.69,214.09h56.22c1.38,0,2.49,1.12,2.49,2.49v56.22c0,1.38-1.12,2.49-2.49,2.49h-56.22
	c-1.38,0-2.49-1.12-2.49-2.49v-56.22C829.2,215.2,830.31,214.09,831.69,214.09z"/>
<path id="use8145" class="st1" d="M899.19,214.09h56.22c1.38,0,2.49,1.12,2.49,2.49v56.22c0,1.38-1.12,2.49-2.49,2.49h-56.22
	c-1.38,0-2.49-1.12-2.49-2.49v-56.22C896.7,215.2,897.82,214.09,899.19,214.09z"/>
<path id="use8147" class="st1" d="M966.7,214.09h88.98c1.38,0,2.49,1.12,2.49,2.49v56.22c0,1.38-1.12,2.49-2.49,2.49H966.7
	c-1.38,0-2.49-1.12-2.49-2.49v-56.22C964.2,215.2,965.32,214.09,966.7,214.09z"/>
<path id="rect8177" class="st1" d="M54.42,281.59h107.61c1.38,0,2.49,1.12,2.49,2.49v56.22c0,1.38-1.12,2.49-2.49,2.49H54.42
	c-1.38,0-2.49-1.12-2.49-2.49v-56.22C51.93,282.7,53.04,281.59,54.42,281.59z"/>
<path id="rect8179" class="st1" d="M173.31,281.59h56.22c1.38,0,2.49,1.12,2.49,2.49v56.22c0,1.38-1.12,2.49-2.49,2.49h-56.22
	c-1.38,0-2.49-1.12-2.49-2.49v-56.22C170.82,282.7,171.93,281.59,173.31,281.59z"/>
<path id="use8183" class="st1" d="M240.81,281.59h56.22c1.38,0,2.49,1.12,2.49,2.49v56.22c0,1.38-1.12,2.49-2.49,2.49h-56.22
	c-1.38,0-2.49-1.12-2.49-2.49v-56.22C238.32,282.7,239.44,281.59,240.81,281.59z"/>
<path id="use8185" class="st1" d="M308.32,281.59h56.22c1.38,0,2.49,1.12,2.49,2.49v56.22c0,1.38-1.12,2.49-2.49,2.49h-56.22
	c-1.38,0-2.49-1.12-2.49-2.49v-56.22C305.82,282.7,306.94,281.59,308.32,281.59z"/>
<path id="use8187" class="st1" d="M375.82,281.59h56.22c1.38,0,2.49,1.12,2.49,2.49v56.22c0,1.38-1.12,2.49-2.49,2.49h-56.22
	c-1.38,0-2.49-1.12-2.49-2.49v-56.22C373.33,282.7,374.44,281.59,375.82,281.59z"/>
<path id="use8189" class="st1" d="M443.32,281.59h56.22c1.38,0,2.49,1.12,2.49,2.49v56.22c0,1.38-1.12,2.49-2.49,2.49h-56.22
	c-1.38,0-2.49-1.12-2.49-2.49v-56.22C440.83,282.7,441.95,281.59,443.32,281.59z"/>
<path id="use8191" class="st1" d="M510.83,281.59h56.22c1.38,0,2.49,1.12,2.49,2.49v56.22c0,1.38-1.12,2.49-2.49,2.49h-56.22
	c-1.38,0-2.49-1.12-2.49-2.49v-56.22C508.33,282.7,509.45,281.59,510.83,281.59z"/>
<path id="use8193" class="st1" d="M578.33,281.59h56.22c1.38,0,2.49,1.12,2.49,2.49v56.22c0,1.38-1.12,2.49-2.49,2.49h-56.22
	c-1.38,0-2.49-1.12-2.49-2.49v-56.22C575.84,282.7,576.95,281.59,578.33,281.59z"/>
<path id="use8195" class="st1" d="M645.83,281.59h56.22c1.38,0,2.49,1.12,2.49,2.49v56.22c0,1.38-1.12,2.49-2.49,2.49h-56.22
	c-1.38,0-2.49-1.12-2.49-2.49v-56.22C643.34,282.7,644.46,281.59,645.83,281.59z"/>
<path id="use8197" class="st1" d="M713.34,281.59h56.22c1.38,0,2.49,1.12,2.49,2.49v56.22c0,1.38-1.12,2.49-2.49,2.49h-56.22
	c-1.38,0-2.49-1.12-2.49-2.49v-56.22C710.84,282.7,711.96,281.59,713.34,281.59z"/>
<path id="use8199" class="st1" d="M780.84,281.59h56.22c1.38,0,2.49,1.12,2.49,2.49v56.22c0,1.38-1.12,2.49-2.49,2.49h-56.22
	c-1.38,0-2.49-1.12-2.49-2.49v-56.22C778.35,282.7,779.46,281.59,780.84,281.59z"/>
<path id="use8201" class="st1" d="M848.34,281.59h56.22c1.38,0,2.49,1.12,2.49,2.49v56.22c0,1.38-1.12,2.49-2.49,2.49h-56.22
	c-1.38,0-2.49-1.12-2.49-2.49v-56.22C845.85,282.7,846.96,281.59,848.34,281.59z"/>
<path id="use8203" class="st1" d="M915.84,281.59h139.83c1.38,0,2.49,1.12,2.49,2.49v56.22c0,1.38-1.12,2.49-2.49,2.49H915.84
	c-1.38,0-2.49-1.12-2.49-2.49v-56.22C913.35,282.7,914.47,281.59,915.84,281.59z"/>
<path id="rect8249" class="st1" d="M54.42,349.09h141.36c1.38,0,2.49,1.12,2.49,2.49v56.22c0,1.38-1.12,2.49-2.49,2.49H54.42
	c-1.38,0-2.49-1.12-2.49-2.49v-56.22C51.93,350.2,53.04,349.09,54.42,349.09z"/>
<path id="use8275" class="st1" d="M207.06,349.09h56.22c1.38,0,2.49,1.12,2.49,2.49v56.22c0,1.38-1.12,2.49-2.49,2.49h-56.22
	c-1.38,0-2.49-1.12-2.49-2.49v-56.22C204.57,350.2,205.68,349.09,207.06,349.09z"/>
<path id="use8277" class="st1" d="M274.56,349.09h56.22c1.38,0,2.49,1.12,2.49,2.49v56.22c0,1.38-1.12,2.49-2.49,2.49h-56.22
	c-1.38,0-2.49-1.12-2.49-2.49v-56.22C272.07,350.2,273.19,349.09,274.56,349.09z"/>
<path id="use8279" class="st1" d="M342.07,349.09h56.22c1.38,0,2.49,1.12,2.49,2.49v56.22c0,1.38-1.12,2.49-2.49,2.49h-56.22
	c-1.38,0-2.49-1.12-2.49-2.49v-56.22C339.57,350.2,340.69,349.09,342.07,349.09z"/>
<path id="use8281" class="st1" d="M409.57,349.09h56.22c1.38,0,2.49,1.12,2.49,2.49v56.22c0,1.38-1.12,2.49-2.49,2.49h-56.22
	c-1.38,0-2.49-1.12-2.49-2.49v-56.22C407.08,350.2,408.19,349.09,409.57,349.09z"/>
<path id="use8283" class="st1" d="M477.07,349.09h56.22c1.38,0,2.49,1.12,2.49,2.49v56.22c0,1.38-1.12,2.49-2.49,2.49h-56.22
	c-1.38,0-2.49-1.12-2.49-2.49v-56.22C474.58,350.2,475.7,349.09,477.07,349.09z"/>
<path id="use8285" class="st1" d="M544.58,349.09h56.22c1.38,0,2.49,1.12,2.49,2.49v56.22c0,1.38-1.12,2.49-2.49,2.49h-56.22
	c-1.38,0-2.49-1.12-2.49-2.49v-56.22C542.08,350.2,543.2,349.09,544.58,349.09z"/>
<path id="use8287" class="st1" d="M612.08,349.09h56.22c1.38,0,2.49,1.12,2.49,2.49v56.22c0,1.38-1.12,2.49-2.49,2.49h-56.22
	c-1.38,0-2.49-1.12-2.49-2.49v-56.22C609.59,350.2,610.7,349.09,612.08,349.09z"/>
<path id="use8289" class="st1" d="M679.58,349.09h56.22c1.38,0,2.49,1.12,2.49,2.49v56.22c0,1.38-1.12,2.49-2.49,2.49h-56.22
	c-1.38,0-2.49-1.12-2.49-2.49v-56.22C677.09,350.2,678.21,349.09,679.58,349.09z"/>
<path id="use8291" class="st1" d="M747.09,349.09h56.22c1.38,0,2.49,1.12,2.49,2.49v56.22c0,1.38-1.12,2.49-2.49,2.49h-56.22
	c-1.38,0-2.49-1.12-2.49-2.49v-56.22C744.59,350.2,745.71,349.09,747.09,349.09z"/>
<path id="use8293" class="st1" d="M814.59,349.09h56.22c1.38,0,2.49,1.12,2.49,2.49v56.22c0,1.38-1.12,2.49-2.49,2.49h-56.22
	c-1.38,0-2.49-1.12-2.49-2.49v-56.22C812.1,350.2,813.21,349.09,814.59,349.09z"/>
<path id="use8295" class="st1" d="M882.09,349.09h173.58c1.38,0,2.49,1.12,2.49,2.49v56.22c0,1.38-1.12,2.49-2.49,2.49H882.09
	c-1.38,0-2.49-1.12-2.49-2.49v-56.22C879.6,350.2,880.71,349.09,882.09,349.09z"/>
<path id="rect8323" class="st1" d="M54.42,416.59h69.72c1.38,0,2.49,1.12,2.49,2.49v56.22c0,1.38-1.12,2.49-2.49,2.49H54.42
	c-1.38,0-2.49-1.12-2.49-2.49v-56.22C51.93,417.7,53.04,416.59,54.42,416.59z"/>
<path id="use8327" class="st1" d="M135.42,416.59h69.72c1.38,0,2.49,1.12,2.49,2.49v56.22c0,1.38-1.12,2.49-2.49,2.49h-69.72
	c-1.38,0-2.49-1.12-2.49-2.49v-56.22C132.93,417.7,134.05,416.59,135.42,416.59z"/>
<path id="use8329" class="st1" d="M216.43,416.59h69.72c1.38,0,2.49,1.12,2.49,2.49v56.22c0,1.38-1.12,2.49-2.49,2.49h-69.72
	c-1.38,0-2.49-1.12-2.49-2.49v-56.22C213.93,417.7,215.05,416.59,216.43,416.59z"/>
<path id="use8331" class="st1" d="M297.43,416.59h434.22c1.38,0,2.49,1.12,2.49,2.49v56.22c0,1.38-1.12,2.49-2.49,2.49H297.43
	c-1.38,0-2.49-1.12-2.49-2.49v-56.22C294.94,417.7,296.05,416.59,297.43,416.59z"/>
<path id="use8333" class="st1" d="M742.92,416.59h69.72c1.38,0,2.49,1.12,2.49,2.49v56.22c0,1.38-1.12,2.49-2.49,2.49h-69.72
	c-1.38,0-2.49-1.12-2.49-2.49v-56.22C740.43,417.7,741.54,416.59,742.92,416.59z"/>
<path id="use8335" class="st1" d="M823.92,416.59h69.72c1.38,0,2.49,1.12,2.49,2.49v56.22c0,1.38-1.12,2.49-2.49,2.49h-69.72
	c-1.38,0-2.49-1.12-2.49-2.49v-56.22C821.43,417.7,822.55,416.59,823.92,416.59z"/>
<path id="use8337" class="st1" d="M904.93,416.59h69.72c1.38,0,2.49,1.12,2.49,2.49v56.22c0,1.38-1.12,2.49-2.49,2.49h-69.72
	c-1.38,0-2.49-1.12-2.49-2.49v-56.22C902.43,417.7,903.55,416.59,904.93,416.59z"/>
<path id="rect6131" class="st1" d="M985.93,416.59h69.72c1.38,0,2.49,1.12,2.49,2.49v56.22c0,1.38-1.12,2.49-2.49,2.49h-69.72
	c-1.38,0-2.49-1.12-2.49-2.49v-56.22C983.43,417.7,984.55,416.59,985.93,416.59z"/>
<path id="rect6133" class="st1" d="M1084.57,61.49c18.71,0,37.43,0,56.14,0c2.43-0.02,2.66,2.61,2.49,4.44c0,18.08,0,36.15,0,54.23
	c0.02,2.43-2.61,2.66-4.44,2.49c-18.06,0-36.13,0-54.19,0c-2.43,0.02-2.66-2.61-2.49-4.44c0-18.08,0-36.15,0-54.23
	C1082.05,62.64,1083.23,61.46,1084.57,61.49L1084.57,61.49z"/>
<path id="path3602" class="st1" d="M1152.07,61.45c18.71,0,37.43,0,56.14,0c2.43-0.02,2.66,2.61,2.49,4.44c0,18.09,0,36.18,0,54.27
	c0.02,2.43-2.61,2.66-4.44,2.49c-18.06,0-36.13,0-54.19,0c-2.43,0.02-2.66-2.61-2.49-4.44c0-18.09,0-36.18,0-54.27
	C1149.55,62.6,1150.73,61.42,1152.07,61.45L1152.07,61.45z"/>
<path id="path3604" class="st1" d="M1219.57,61.45c18.71,0,37.43,0,56.14,0c2.43-0.02,2.66,2.61,2.49,4.44c0,18.09,0,36.18,0,54.27
	c0.02,2.43-2.61,2.66-4.44,2.49c-18.06,0-36.13,0-54.19,0c-2.43,0.02-2.66-2.61-2.49-4.44c0-18.09,0-36.18,0-54.27
	C1217.05,62.6,1218.23,61.42,1219.57,61.45L1219.57,61.45z"/>
<path id="path3606" class="st1" d="M1084.57,146.57c18.71,0,37.43,0,56.14,0c2.43-0.02,2.66,2.61,2.49,4.44c0,18.09,0,36.18,0,54.27
	c0.02,2.43-2.61,2.66-4.44,2.49c-18.06,0-36.13,0-54.19,0c-2.43,0.02-2.66-2.61-2.49-4.44c0-18.09,0-36.18,0-54.27
	C1082.05,147.72,1083.23,146.54,1084.57,146.57L1084.57,146.57z"/>
<path id="path3608" class="st1" d="M1152.07,146.57c18.71,0,37.43,0,56.14,0c2.43-0.02,2.66,2.61,2.49,4.44c0,18.09,0,36.18,0,54.27
	c0.02,2.43-2.61,2.66-4.44,2.49c-18.06,0-36.13,0-54.19,0c-2.43,0.02-2.66-2.61-2.49-4.44c0-18.09,0-36.18,0-54.27
	C1149.55,147.72,1150.73,146.54,1152.07,146.57L1152.07,146.57z"/>
<path id="path3610" class="st1" d="M1219.57,146.57c18.71,0,37.43,0,56.14,0c2.43-0.02,2.66,2.61,2.49,4.44c0,18.09,0,36.18,0,54.27
	c0.02,2.43-2.61,2.66-4.44,2.49c-18.06,0-36.13,0-54.19,0c-2.43,0.02-2.66-2.61-2.49-4.44c0-18.09,0-36.18,0-54.27
	C1217.05,147.72,1218.23,146.54,1219.57,146.57L1219.57,146.57z"/>
<path id="path3612" class="st1" d="M1084.57,214.07c18.71,0,37.43,0,56.14,0c2.43-0.02,2.66,2.61,2.49,4.44c0,18.09,0,36.18,0,54.27
	c0.02,2.43-2.61,2.66-4.44,2.49c-18.06,0-36.13,0-54.19,0c-2.43,0.02-2.66-2.61-2.49-4.44c0-18.09,0-36.18,0-54.27
	C1082.05,215.22,1083.23,214.04,1084.57,214.07L1084.57,214.07z"/>
<path id="path3614" class="st1" d="M1152.07,214.07c18.71,0,37.43,0,56.14,0c2.43-0.02,2.66,2.61,2.49,4.44c0,18.09,0,36.18,0,54.27
	c0.02,2.43-2.61,2.66-4.44,2.49c-18.06,0-36.13,0-54.19,0c-2.43,0.02-2.66-2.61-2.49-4.44c0-18.09,0-36.18,0-54.27
	C1149.55,215.22,1150.73,214.04,1152.07,214.07L1152.07,214.07z"/>
<path id="path3616" class="st1" d="M1219.57,214.07c18.71,0,37.43,0,56.14,0c2.43-0.02,2.66,2.61,2.49,4.44c0,18.09,0,36.18,0,54.27
	c0.02,2.43-2.61,2.66-4.44,2.49c-18.06,0-36.13,0-54.19,0c-2.43,0.02-2.66-2.61-2.49-4.44c0-18.09,0-36.18,0-54.27
	C1217.05,215.22,1218.23,214.04,1219.57,214.07L1219.57,214.07z"/>
<path id="path3618" class="st1" d="M1152.07,349.07c18.71,0,37.43,0,56.14,0c2.43-0.02,2.66,2.61,2.49,4.44c0,18.09,0,36.18,0,54.27
	c0.02,2.43-2.61,2.66-4.44,2.49c-18.06,0-36.13,0-54.19,0c-2.43,0.02-2.66-2.61-2.49-4.44c0-18.09,0-36.18,0-54.27
	C1149.55,350.22,1150.73,349.04,1152.07,349.07L1152.07,349.07z"/>
<path id="path3620" class="st1" d="M1084.57,416.57c18.71,0,37.43,0,56.14,0c2.43-0.02,2.66,2.61,2.49,4.44c0,18.09,0,36.18,0,54.27
	c0.02,2.43-2.61,2.66-4.44,2.49c-18.06,0-36.13,0-54.19,0c-2.43,0.02-2.66-2.61-2.49-4.44c0-18.09,0-36.18,0-54.27
	C1082.05,417.72,1083.23,416.54,1084.57,416.57L1084.57,416.57z"/>
<path id="path3622" class="st1" d="M1152.07,416.57c18.71,0,37.43,0,56.14,0c2.43-0.02,2.66,2.61,2.49,4.44c0,18.09,0,36.18,0,54.27
	c0.02,2.43-2.61,2.66-4.44,2.49c-18.06,0-36.13,0-54.19,0c-2.43,0.02-2.66-2.61-2.49-4.44c0-18.09,0-36.18,0-54.27
	C1149.55,417.72,1150.73,416.54,1152.07,416.57L1152.07,416.57z"/>
<path id="path3624" class="st1" d="M1219.57,416.57c18.71,0,37.43,0,56.14,0c2.43-0.02,2.66,2.61,2.49,4.44c0,18.09,0,36.18,0,54.27
	c0.02,2.43-2.61,2.66-4.44,2.49c-18.06,0-36.13,0-54.19,0c-2.43,0.02-2.66-2.61-2.49-4.44c0-18.09,0-36.18,0-54.27
	C1217.05,417.72,1218.23,416.54,1219.57,416.57L1219.57,416.57z"/>
<path id="path3628" class="st1" d="M1304.71,146.57c18.71,0,37.43,0,56.14,0c2.43-0.02,2.66,2.61,2.49,4.44c0,18.09,0,36.18,0,54.27
	c0.02,2.43-2.61,2.66-4.44,2.49c-18.06,0-36.13,0-54.19,0c-2.43,0.02-2.66-2.61-2.49-4.44c0-18.09,0-36.18,0-54.27
	C1302.19,147.72,1303.37,146.54,1304.71,146.57L1304.71,146.57z"/>
<path id="path3630" class="st1" d="M1372.21,146.57c18.71,0,37.43,0,56.14,0c2.43-0.02,2.66,2.61,2.49,4.44c0,18.09,0,36.18,0,54.27
	c0.02,2.43-2.61,2.66-4.44,2.49c-18.06,0-36.13,0-54.19,0c-2.43,0.02-2.66-2.61-2.49-4.44c0-18.09,0-36.18,0-54.27
	C1369.69,147.72,1370.87,146.54,1372.21,146.57L1372.21,146.57z"/>
<path id="path3632" class="st1" d="M1439.71,146.57c18.71,0,37.43,0,56.14,0c2.43-0.02,2.66,2.61,2.49,4.44c0,18.09,0,36.18,0,54.27
	c0.02,2.43-2.61,2.66-4.44,2.49c-18.06,0-36.13,0-54.19,0c-2.43,0.02-2.66-2.61-2.49-4.44c0-18.09,0-36.18,0-54.27
	C1437.19,147.72,1438.37,146.54,1439.71,146.57L1439.71,146.57z"/>
<path id="path3634" class="st1" d="M1507.21,146.57c18.71,0,37.43,0,56.14,0c2.43-0.02,2.66,2.61,2.49,4.44c0,18.09,0,36.18,0,54.27
	c0.02,2.43-2.61,2.66-4.44,2.49c-18.06,0-36.13,0-54.19,0c-2.43,0.02-2.66-2.61-2.49-4.44c0-18.09,0-36.18,0-54.27
	C1504.69,147.72,1505.87,146.54,1507.21,146.57L1507.21,146.57z"/>
<path id="path3636" class="st1" d="M1304.71,214.07c18.71,0,37.43,0,56.14,0c2.43-0.02,2.66,2.61,2.49,4.44c0,18.09,0,36.18,0,54.27
	c0.02,2.43-2.61,2.66-4.44,2.49c-18.06,0-36.13,0-54.19,0c-2.43,0.02-2.66-2.61-2.49-4.44c0-18.09,0-36.18,0-54.27
	C1302.19,215.22,1303.37,214.04,1304.71,214.07L1304.71,214.07z"/>
<path id="path3638" class="st1" d="M1372.21,214.07c18.71,0,37.43,0,56.14,0c2.43-0.02,2.66,2.61,2.49,4.44c0,18.09,0,36.18,0,54.27
	c0.02,2.43-2.61,2.66-4.44,2.49c-18.06,0-36.13,0-54.19,0c-2.43,0.02-2.66-2.61-2.49-4.44c0-18.09,0-36.18,0-54.27
	C1369.69,215.22,1370.87,214.04,1372.21,214.07L1372.21,214.07z"/>
<path id="path3640" class="st1" d="M1439.71,214.07c18.71,0,37.43,0,56.14,0c2.43-0.02,2.66,2.61,2.49,4.44c0,18.09,0,36.18,0,54.27
	c0.02,2.43-2.61,2.66-4.44,2.49c-18.06,0-36.13,0-54.19,0c-2.43,0.02-2.66-2.61-2.49-4.44c0-18.09,0-36.18,0-54.27
	C1437.19,215.22,1438.37,214.04,1439.71,214.07L1439.71,214.07z"/>
<path id="path3642" class="st1" d="M1507.21,214.07c18.71,0,37.43,0,56.14,0c2.43-0.05,2.66,5.49,2.49,9.33
	c0,38.01,0,76.03,0,114.04c0.02,5.1-2.61,5.59-4.44,5.24c-18.06,0-36.13,0-54.19,0c-2.43,0.05-2.66-5.49-2.49-9.33
	c0-38.01,0-76.03,0-114.04C1504.69,216.49,1505.87,214,1507.21,214.07L1507.21,214.07z"/>
<path id="path3965" class="st1" d="M1304.71,281.57c18.71,0,37.43,0,56.14,0c2.43-0.02,2.66,2.61,2.49,4.44c0,18.08,0,36.15,0,54.23
	c0.02,2.43-2.61,2.66-4.44,2.49c-18.06,0-36.13,0-54.19,0c-2.43,0.02-2.66-2.61-2.49-4.44c0-18.08,0-36.15,0-54.23
	C1302.19,282.72,1303.37,281.54,1304.71,281.57L1304.71,281.57z"/>
<path id="path3967" class="st1" d="M1372.21,281.57c18.71,0,37.43,0,56.14,0c2.43-0.02,2.66,2.61,2.49,4.44c0,18.08,0,36.15,0,54.23
	c0.02,2.43-2.61,2.66-4.44,2.49c-18.06,0-36.13,0-54.19,0c-2.43,0.02-2.66-2.61-2.49-4.44c0-18.08,0-36.15,0-54.23
	C1369.69,282.72,1370.87,281.54,1372.21,281.57L1372.21,281.57z"/>
<path id="path3969" class="st1" d="M1439.71,281.57c18.71,0,37.43,0,56.14,0c2.43-0.02,2.66,2.61,2.49,4.44c0,18.08,0,36.15,0,54.23
	c0.02,2.43-2.61,2.66-4.44,2.49c-18.06,0-36.13,0-54.19,0c-2.43,0.02-2.66-2.61-2.49-4.44c0-18.08,0-36.15,0-54.23
	C1437.19,282.72,1438.37,281.54,1439.71,281.57L1439.71,281.57z"/>
<path id="path3971" class="st1" d="M1304.71,349.09c18.71,0,37.43,0,56.14,0c2.43-0.02,2.66,2.61,2.49,4.44c0,18.08,0,36.15,0,54.23
	c0.02,2.43-2.61,2.66-4.44,2.49c-18.06,0-36.13,0-54.19,0c-2.43,0.02-2.66-2.61-2.49-4.44c0-18.08,0-36.15,0-54.23
	C1302.19,350.24,1303.37,349.06,1304.71,349.09L1304.71,349.09z"/>
<path id="path3973" class="st1" d="M1372.21,349.09c18.71,0,37.43,0,56.14,0c2.43-0.02,2.66,2.61,2.49,4.44c0,18.08,0,36.15,0,54.23
	c0.02,2.43-2.61,2.66-4.44,2.49c-18.06,0-36.13,0-54.19,0c-2.43,0.02-2.66-2.61-2.49-4.44c0-18.08,0-36.15,0-54.23
	C1369.69,350.24,1370.87,349.06,1372.21,349.09L1372.21,349.09z"/>
<path id="path3975" class="st1" d="M1439.71,349.09c18.71,0,37.43,0,56.14,0c2.43-0.02,2.66,2.61,2.49,4.44c0,18.08,0,36.15,0,54.23
	c0.02,2.43-2.61,2.66-4.44,2.49c-18.06,0-36.13,0-54.19,0c-2.43,0.02-2.66-2.61-2.49-4.44c0-18.08,0-36.15,0-54.23
	C1437.19,350.24,1438.37,349.06,1439.71,349.09L1439.71,349.09z"/>
<path id="path3977" class="st1" d="M1507.21,349.11c18.71,0,37.43,0,56.14,0c2.43-0.05,2.66,5.49,2.49,9.33
	c0,38.01,0,76.03,0,114.04c0.02,5.1-2.61,5.59-4.44,5.24c-18.06,0-36.13,0-54.19,0c-2.43,0.05-2.66-5.49-2.49-9.33
	c0-38.01,0-76.03,0-114.04C1504.69,351.53,1505.87,349.04,1507.21,349.11L1507.21,349.11z"/>
<path id="path3979" class="st1" d="M1307.5,416.61c39.35,0,78.71,0,118.06,0c5.1-0.02,5.58,2.61,5.23,4.44c0,18.08,0,36.15,0,54.23
	c0.05,2.43-5.49,2.66-9.33,2.49c-37.99,0-75.98,0-113.96,0c-5.1,0.02-5.58-2.61-5.23-4.44c0-18.08,0-36.15,0-54.23
	C1302.2,417.76,1304.68,416.58,1307.5,416.61L1307.5,416.61z"/>
<path id="path3983" class="st1" d="M1439.71,416.61c18.71,0,37.43,0,56.14,0c2.43-0.02,2.66,2.61,2.49,4.44c0,18.08,0,36.15,0,54.23
	c0.02,2.43-2.61,2.66-4.44,2.49c-18.06,0-36.13,0-54.19,0c-2.43,0.02-2.66-2.61-2.49-4.44c0-18.08,0-36.15,0-54.23
	C1437.19,417.76,1438.37,416.58,1439.71,416.61L1439.71,416.61z"/>
<g id="layer4" transform="translate(-3.40625,51.10625)">
	<text transform="matrix(1 0 0 1 62.4469 28.7151)" class="st2 st3 st4">Esc</text>
	<text transform="matrix(1 0 0 1 197.4613 28.7339)" class="st2 st3 st4">F1</text>
	<text transform="matrix(1 0 0 1 264.9613 28.7339)" class="st2 st3 st4">F2</text>
	<text transform="matrix(1 0 0 1 332.4614 28.7339)" class="st2 st3 st4">F3</text>
	<text transform="matrix(1 0 0 1 399.9614 28.7339)" class="st2 st3 st4">F4</text>
	<text transform="matrix(1 0 0 1 501.2113 28.7339)" class="st2 st3 st4">F5</text>
	<text transform="matrix(1 0 0 1 568.7113 28.7339)" class="st2 st3 st4">F6</text>
	<text transform="matrix(1 0 0 1 636.2113 28.7339)" class="st2 st3 st4">F7</text>
	<text transform="matrix(1 0 0 1 703.7113 28.7339)" class="st2 st3 st4">F8</text>
	<text transform="matrix(1 0 0 1 804.9614 28.7339)" class="st2 st3 st4">F9</text>
	<text transform="matrix(1 0 0 1 872.4614 28.7339)" class="st2 st3 st4">F10</text>
	<text transform="matrix(1 0 0 1 939.9614 28.7339)" class="st2 st3 st4">F11</text>
	<text transform="matrix(1 0 0 1 1007.4614 28.7339)" class="st2 st3 st4">F12</text>
	<text transform="matrix(1 0 0 1 62.4613 113.874)" class="st2 st3 st4">` ~</text>
	<text transform="matrix(1 0 0 1 129.9613 113.874)" class="st2 st3 st4">1 !</text>
	<text transform="matrix(1 0 0 1 197.4613 113.874)" class="st2 st3 st4">2 @</text>
	<text transform="matrix(1 0 0 1 264.9613 113.874)" class="st2 st3 st4">3 #</text>
	<text transform="matrix(1 0 0 1 332.4613 113.874)" class="st2 st3 st4">4 $</text>
	<text transform="matrix(1 0 0 1 399.9613 113.874)" class="st2 st3 st4">5 %</text>
	<text transform="matrix(1 0 0 1 467.4613 113.874)" class="st2 st3 st4">6 ^</text>
	<text transform="matrix(1 0 0 1 534.9613 113.874)" class="st2 st3 st4">7 &amp;</text>
	<text transform="matrix(1 0 0 1 602.4613 113.874)" class="st2 st3 st4">8 *</text>
	<text transform="matrix(1 0 0 1 669.9613 113.874)" class="st2 st3 st4">9 (</text>
	<text transform="matrix(1 0 0 1 737.4613 113.874)" class="st2 st3 st4">0 )</text>
	<text transform="matrix(1 0 0 1 804.9613 113.874)" class="st2 st3 st4">- _</text>
	<text transform="matrix(1 0 0 1 872.4613 113.874)" class="st2 st3 st4">= +</text>
	<text transform="matrix(1 0 0 1 939.9613 113.874)" class="st5"><tspan x="0" y="0" class="st2 st3 st4">Backspace </tspan><tspan x="85.21" y="0" class="st2 st6 st4">⇦</tspan></text>
	<text transform="matrix(1 0 0 1 62.4613 181.3739)" class="st5"><tspan x="0" y="0" class="st2 st3 st4">Tab </tspan><tspan x="31.41" y="0" class="st2 st6 st4">↹</tspan></text>
	<text transform="matrix(1 0 0 1 164.7013 181.3739)" class="st2 st3 st4">Q</text>
	<text transform="matrix(1 0 0 1 232.2013 181.3739)" class="st2 st3 st4">W</text>
	<text transform="matrix(1 0 0 1 299.7014 181.3739)" class="st2 st3 st4">E</text>
	<text transform="matrix(1 0 0 1 367.2014 181.3739)" class="st2 st3 st4">R</text>
	<text transform="matrix(1 0 0 1 434.7014 181.3739)" class="st2 st3 st4">T</text>
	<text transform="matrix(1 0 0 1 502.2014 181.3739)" class="st2 st3 st4">Y</text>
	<text transform="matrix(1 0 0 1 569.7013 181.3739)" class="st2 st3 st4">U</text>
	<text transform="matrix(1 0 0 1 637.2013 181.3739)" class="st2 st3 st4">I</text>
	<text transform="matrix(1 0 0 1 704.7013 181.3739)" class="st2 st3 st4">O</text>
	<text transform="matrix(1 0 0 1 772.2013 181.3739)" class="st2 st3 st4">P</text>
	<text transform="matrix(1 0 0 1 839.7013 181.3739)" class="st2 st3 st4">[ {</text>
	<text transform="matrix(1 0 0 1 907.2013 181.3739)" class="st2 st3 st4">] }</text>
	<text transform="matrix(1 0 0 1 974.7013 181.3739)" class="st2 st3 st4">| |</text>
	<text transform="matrix(1 0 0 1 62.4613 248.8739)" class="st2 st3 st4">Caps Lock</text>
	<text transform="matrix(1 0 0 1 181.3513 248.8739)" class="st2 st3 st4">A</text>
	<text transform="matrix(1 0 0 1 248.8513 248.8739)" class="st2 st3 st4">S</text>
	<text transform="matrix(1 0 0 1 316.3514 248.8739)" class="st2 st3 st4">D</text>
	<text transform="matrix(1 0 0 1 383.8514 248.8739)" class="st2 st3 st4">F</text>
	<text transform="matrix(1 0 0 1 451.3514 248.8739)" class="st2 st3 st4">G</text>
	<text transform="matrix(1 0 0 1 518.8514 248.8739)" class="st2 st3 st4">H</text>
	<text transform="matrix(1 0 0 1 586.3513 248.8739)" class="st2 st3 st4">J</text>
	<text transform="matrix(1 0 0 1 653.8513 248.8739)" class="st2 st3 st4">K</text>
	<text transform="matrix(1 0 0 1 721.3513 248.8739)" class="st2 st3 st4">l</text>
	<text transform="matrix(1 0 0 1 788.8513 248.8739)" class="st2 st3 st4">; :</text>
	<text transform="matrix(1 0 0 1 856.3513 248.8739)" class="st2 st3 st4">&apos; &quot;</text>
	<text transform="matrix(1 0 0 1 923.8513 248.8739)" class="st5"><tspan x="0" y="0" class="st2 st3 st4">Enter </tspan><tspan x="43.61" y="0" class="st2 st6 st4">↵</tspan></text>
	<text transform="matrix(1 0 0 1 62.4613 316.374)" class="st5"><tspan x="0" y="0" class="st2 st3 st4">Shift </tspan><tspan x="37.19" y="0" class="st2 st6 st4">⇧</tspan></text>
	<text transform="matrix(1 0 0 1 215.1013 316.374)" class="st2 st3 st4">Z</text>
	<text transform="matrix(1 0 0 1 282.6013 316.374)" class="st2 st3 st4">X</text>
	<text transform="matrix(1 0 0 1 350.1014 316.374)" class="st2 st3 st4">C</text>
	<text transform="matrix(1 0 0 1 417.6014 316.374)" class="st2 st3 st4">V</text>
	<text transform="matrix(1 0 0 1 485.1014 316.374)" class="st2 st3 st4">B</text>
	<text transform="matrix(1 0 0 1 552.6013 316.374)" class="st2 st3 st4">N</text>
	<text transform="matrix(1 0 0 1 620.1013 316.374)" class="st2 st3 st4">M</text>
	<text transform="matrix(1 0 0 1 687.6013 316.374)" class="st2 st3 st4">, &gt;</text>
	<text transform="matrix(1 0 0 1 755.1013 316.374)" class="st2 st3 st4">. &gt;</text>
	<text transform="matrix(1 0 0 1 822.6013 316.374)" class="st2 st3 st4">/ ?</text>
	<text transform="matrix(1 0 0 1 890.1013 316.374)" class="st5"><tspan x="0" y="0" class="st2 st3 st4">Shift </tspan><tspan x="37.19" y="0" class="st2 st6 st4">⇧</tspan></text>
	<text transform="matrix(1 0 0 1 62.4613 383.874)" class="st2 st3 st4">Ctrl</text>
	<text transform="matrix(1 0 0 1 143.4644 383.874)" class="st2 st3 st4">Super</text>
	<text transform="matrix(1 0 0 1 224.4674 383.874)" class="st2 st3 st4">Alt</text>
	<text transform="matrix(1 0 0 1 750.9613 383.874)" class="st2 st3 st4">AltGr</text>
	<text transform="matrix(1 0 0 1 831.9643 383.874)" class="st2 st3 st4">Menu</text>
	<text transform="matrix(1 0 0 1 912.9673 383.874)" class="st2 st3 st4">Ctrl</text>
	<text transform="matrix(1 0 0 1 1092.5681 28.7763)" class="st2 st3 st4">PrtSc</text>
	<text transform="matrix(1 0 0 1 1160.0681 28.7763)" class="st2 st3 st4">ScrLk</text>
	<text transform="matrix(1 0 0 1 1227.5681 28.7763)" class="st2 st3 st4">Pause</text>
	<text transform="matrix(1 0 0 1 1092.5681 113.8955)" class="st2 st3 st4">Insert</text>
	<text transform="matrix(1 0 0 1 1160.0681 113.8955)" class="st2 st3 st4">Home</text>
	<text transform="matrix(1 0 0 1 1227.5681 113.8955)" class="st2 st3 st4">PgUp</text>
	<text transform="matrix(1 0 0 1 1092.5681 181.3954)" class="st2 st3 st4">Delete</text>
	<text transform="matrix(1 0 0 1 1160.0681 181.3954)" class="st2 st3 st4">End</text>
	<text transform="matrix(1 0 0 1 1227.5681 181.3954)" class="st2 st3 st4">PgDn</text>
	<text transform="matrix(1 0 0 1 1160.0681 316.3954)" class="st2 st6 st4">↑</text>
	<text transform="matrix(1 0 0 1 1092.5681 383.8954)" class="st2 st6 st4">←</text>
	<text transform="matrix(1 0 0 1 1160.0681 383.8954)" class="st2 st6 st4">↓</text>
	<text transform="matrix(1 0 0 1 1227.5681 383.8954)" class="st2 st6 st4">→</text>
	<text transform="matrix(1 0 0 1 1312.7081 113.8955)" class="st2 st3 st4">NumL</text>
	<text transform="matrix(1 0 0 1 1380.2081 113.8955)" class="st2 st3 st4">/</text>
	<text transform="matrix(1 0 0 1 1447.7081 113.8955)" class="st2 st3 st4">*</text>
	<text transform="matrix(1 0 0 1 1515.2081 113.8955)" class="st2 st3 st4">-</text>
	<text transform="matrix(1 0 0 1 1312.7081 181.3954)" class="st2 st3 st4">7 Hme</text>
	<text transform="matrix(1 0 0 1 1380.2081 181.3954)" class="st5"><tspan x="0" y="0" class="st2 st3 st4">8 </tspan><tspan x="12.66" y="0" class="st2 st6 st4">↑</tspan></text>
	<text transform="matrix(1 0 0 1 1447.7081 181.3954)" class="st2 st3 st4">9 PgU</text>
	<text transform="matrix(1 0 0 1 1515.2081 181.3954)" class="st2 st3 st4">+</text>
	<text transform="matrix(1 0 0 1 1312.7081 248.8954)" class="st5"><tspan x="0" y="0" class="st2 st3 st4">4 </tspan><tspan x="12.66" y="0" class="st2 st6 st4">←</tspan></text>
	<text transform="matrix(1 0 0 1 1380.2081 248.8954)" class="st2 st3 st4">5</text>
	<text transform="matrix(1 0 0 1 1447.7081 248.8954)" class="st5"><tspan x="0" y="0" class="st2 st3 st4">6 </tspan><tspan x="12.66" y="0" class="st2 st6 st4">→</tspan></text>
	<text transform="matrix(1 0 0 1 1312.7081 316.3954)" class="st2 st3 st4">1 End</text>
	<text transform="matrix(1 0 0 1 1380.2081 316.3954)" class="st5"><tspan x="0" y="0" class="st2 st3 st4">2 </tspan><tspan x="12.66" y="0" class="st2 st6 st4">↓</tspan></text>
	<text transform="matrix(1 0 0 1 1447.7081 316.3954)" class="st2 st3 st4">3 PgD</text>
	<text transform="matrix(1 0 0 1 1515.2081 316.3954)" class="st2 st3 st4">Enter</text>
	<text transform="matrix(1 0 0 1 1312.7081 383.8954)" class="st2 st3 st4">0 Ins</text>
	<text transform="matrix(1 0 0 1 1447.7081 383.8954)" class="st2 st3 st4">. Del</text>
</g>
<g id="layer3" transform="translate(-3.40625,19.60625)">
	<path id="rect4989" class="st7" d="M1308.11,41.84h258.75c1.37,0,2.48,1.11,2.48,2.48v56.25c0,1.37-1.11,2.48-2.48,2.48h-258.75
		c-1.37,0-2.48-1.11-2.48-2.48V44.33C1305.62,42.96,1306.73,41.84,1308.11,41.84z"/>
	<text transform="matrix(1 0 0 1 1393.4369 65.1768)" class="st8 st3 st9">Outline</text>
	<text transform="matrix(1 0 0 1 1353.8983 92.6768)" class="st8 st3 st9">key mappings</text>
</g>
</svg>
