<?xml version="1.0" encoding="utf-8"?>
<!-- Generator: Adobe Illustrator 25.4.1, SVG Export Plug-In . SVG Version: 6.00 Build 0)  -->
<svg version="1.1" id="Layer_1" xmlns="http://www.w3.org/2000/svg" xmlns:xlink="http://www.w3.org/1999/xlink" x="0px" y="0px"
	 viewBox="0 0 1080 1080" style="enable-background:new 0 0 1080 1080;" xml:space="preserve">
<style type="text/css">
	.st0{fill:url(#SVGID_1_);}
	.st1{fill:#FFFFFF;}
	.st2{fill:url(#SVGID_00000054958146384835179030000002865349661832345735_);}
	.st3{fill:#518AFA;}
	.st4{fill:url(#SVGID_00000069367167526972175570000004812584232813785527_);}
	.st5{fill:url(#SVGID_00000000215082176723694760000008130237754229502394_);}
	.st6{fill:#696969;}
	.st7{fill:url(#SVGID_00000043429525336377262090000006879536307853896880_);}
	.st8{fill:#E0E0E0;}
	.st9{fill:#1487E3;}
	.st10{fill:#78C2FF;}
	.st11{fill:#FF8761;}
	.st12{fill:#323657;}
	.st13{fill:#EA9963;}
	.st14{fill:#FFB27D;}
	.st15{fill:#2B478B;}
</style>
<g>
	<g>
		<g>
			<linearGradient id="SVGID_1_" gradientUnits="userSpaceOnUse" x1="216.4399" y1="902.5101" x2="893.2766" y2="902.5101">
				<stop  offset="0" style="stop-color:#FF9F55"/>
				<stop  offset="1" style="stop-color:#FFD255"/>
			</linearGradient>
			<polygon class="st0" points="850.93,823.37 554.86,823.37 258.79,823.37 216.44,981.65 554.86,981.65 893.28,981.65 			"/>
			<path class="st1" d="M263.46,865.41h38.74c1.62,0,2.84,1.26,2.54,2.61l-3.75,16.85c-0.23,1.04-1.3,1.79-2.54,1.79h-39.4
				c-1.66,0-2.88-1.31-2.52-2.68l4.41-16.85C261.2,866.13,262.24,865.41,263.46,865.41z"/>
			<polygon class="st1" points="319.96,865.41 349.25,865.41 345.36,886.67 315.51,886.67 			"/>
			<polygon class="st1" points="363.9,865.41 393.19,865.41 390.12,886.67 360.28,886.7 			"/>
			<polygon class="st1" points="407.83,865.41 437.12,865.41 434.9,886.67 405.05,886.67 			"/>
			<polygon class="st1" points="451.77,865.41 481.05,865.41 479.67,886.67 449.82,886.67 			"/>
			<polygon class="st1" points="495.7,865.41 524.99,865.41 524.43,886.67 494.59,886.7 			"/>
			<polygon class="st1" points="847.28,865.41 803.34,865.41 808.08,886.67 852.85,886.67 			"/>
			<polygon class="st1" points="788.7,865.41 759.41,865.41 763.31,886.67 793.15,886.67 			"/>
			<polygon class="st1" points="744.76,865.41 715.47,865.41 718.54,886.67 748.39,886.7 			"/>
			<polygon class="st1" points="700.83,865.41 671.54,865.41 673.76,886.67 703.61,886.67 			"/>
			<polygon class="st1" points="656.89,865.41 627.6,865.41 629,886.67 658.84,886.67 			"/>
			<polygon class="st1" points="612.96,865.41 583.67,865.41 584.23,886.67 614.08,886.7 			"/>
			<polygon class="st1" points="539.64,865.41 568.93,865.41 569.41,886.67 539.64,886.67 			"/>
			<polygon class="st1" points="250.57,902.51 311.77,902.51 308.29,924.44 245.92,924.44 			"/>
			<polygon class="st1" points="856.83,902.51 781.18,902.51 785.49,924.44 862.58,924.44 			"/>
			<polygon class="st1" points="766.05,902.51 735.79,902.51 739.23,924.44 770.07,924.44 			"/>
			<polygon class="st1" points="720.66,902.51 690.39,902.51 692.98,924.44 723.82,924.44 			"/>
			<polygon class="st1" points="675.26,902.51 645,902.51 646.73,924.44 677.56,924.44 			"/>
			<polygon class="st1" points="629.87,902.51 599.61,902.51 600.47,924.44 631.31,924.44 			"/>
			<polygon class="st1" points="241.43,941.61 304,941.61 299.43,963.39 235.72,963.39 			"/>
			<polygon class="st1" points="319.64,941.61 350.92,941.61 347.22,963.39 315.36,963.39 			"/>
			<polygon class="st1" points="366.57,941.61 397.85,941.61 601.19,941.61 602.07,963.39 363.14,963.39 			"/>
			<polygon class="st1" points="616.85,941.61 648.14,941.61 649.85,963.39 618,963.39 			"/>
			<polygon class="st1" points="663.78,941.61 695.07,941.61 697.64,963.39 665.78,963.39 			"/>
			<polygon class="st1" points="710.71,941.61 742,941.61 745.42,963.39 713.56,963.39 			"/>
			<polygon class="st1" points="757.64,941.61 788.92,941.61 793.2,963.39 761.35,963.39 			"/>
			<polygon class="st1" points="804.57,941.61 867.14,941.61 872.85,963.39 809.14,963.39 			"/>
			<polygon class="st1" points="584.54,902.51 554.52,902.51 554.52,924.44 585.12,924.44 			"/>
			<polygon class="st1" points="539.15,902.51 508.89,902.51 508.03,924.44 538.86,924.44 			"/>
			<polygon class="st1" points="493.76,902.51 463.49,902.51 461.77,924.44 492.61,924.44 			"/>
			<polygon class="st1" points="448.37,902.51 418.1,902.51 415.52,924.44 446.36,924.44 			"/>
			<polygon class="st1" points="402.97,902.51 372.71,902.51 369.27,924.44 400.1,924.44 			"/>
			<polygon class="st1" points="357.58,902.51 327.32,902.51 323.01,924.44 353.85,924.44 			"/>
			<polygon class="st1" points="264.89,852.05 269.86,833.06 284.08,833.06 279.44,852.05 			"/>
			<polygon class="st1" points="298.3,833.06 326.74,833.06 322.76,852.05 293.82,852.05 			"/>
			<polygon class="st1" points="340.96,833.06 369.41,833.06 366.18,852.05 337.23,852.05 			"/>
			<polygon class="st1" points="383.63,833.06 412.07,833.06 409.58,852.05 380.64,852.05 			"/>
			<polygon class="st1" points="426.29,833.06 454.74,833.06 452.99,852.05 424.05,852.05 			"/>
			<polygon class="st1" points="468.96,833.06 497.4,833.06 496.4,852.05 467.46,852.05 			"/>
			<polygon class="st1" points="511.62,833.06 540.06,833.06 539.81,852.05 510.87,852.05 			"/>
			<polygon class="st1" points="554.28,833.06 582.73,833.06 583.22,852.05 554.28,852.05 			"/>
			<polygon class="st1" points="596.95,833.06 625.39,833.06 626.63,852.05 597.69,852.05 			"/>
			<polygon class="st1" points="639.61,833.06 668.05,833.06 670.04,852.05 641.1,852.05 			"/>
			<polygon class="st1" points="682.27,833.06 710.72,833.06 713.45,852.05 684.51,852.05 			"/>
			<polygon class="st1" points="724.94,833.06 753.38,833.06 756.86,852.05 727.92,852.05 			"/>
			<polygon class="st1" points="767.6,833.06 796.04,833.06 800.27,852.05 771.33,852.05 			"/>
			<polygon class="st1" points="810.27,833.06 838.71,833.06 843.68,852.05 814.74,852.05 			"/>
			
				<linearGradient id="SVGID_00000173865029457557155890000010096317838056629689_" gradientUnits="userSpaceOnUse" x1="-97.2637" y1="986.3226" x2="579.5729" y2="986.3226">
				<stop  offset="0" style="stop-color:#E37E30"/>
				<stop  offset="1" style="stop-color:#E8A12E"/>
			</linearGradient>
			
				<rect x="216.44" y="981.65" style="fill:url(#SVGID_00000173865029457557155890000010096317838056629689_);" width="676.84" height="9.34"/>
		</g>
		<g>
			
				<rect x="510.31" y="488.14" transform="matrix(-1 -1.224647e-16 1.224647e-16 -1 1113.7672 1259.2031)" class="st3" width="93.15" height="282.93"/>
		</g>
		<g>
			
				<linearGradient id="SVGID_00000142133933171486170430000011975185116338261413_" gradientUnits="userSpaceOnUse" x1="130.4474" y1="340.7142" x2="1024.0295" y2="340.7142">
				<stop  offset="0" style="stop-color:#FF9F55"/>
				<stop  offset="1" style="stop-color:#FFD255"/>
			</linearGradient>
			<path style="fill:url(#SVGID_00000142133933171486170430000011975185116338261413_);" d="M163.37,624.43H950.4
				c4.78,0,8.66-3.88,8.66-8.66V65.66c0-4.78-3.88-8.66-8.66-8.66H163.37c-4.78,0-8.66,3.88-8.66,8.66v550.11
				C154.71,620.55,158.59,624.43,163.37,624.43z"/>
		</g>
		<g>
			
				<linearGradient id="SVGID_00000039094590232917557040000008835269152165836990_" gradientUnits="userSpaceOnUse" x1="183.1417" y1="303.0409" x2="929.202" y2="303.0409">
				<stop  offset="0" style="stop-color:#404B61"/>
				<stop  offset="0.486" style="stop-color:#3C4860"/>
				<stop  offset="1" style="stop-color:#2F3E5C"/>
			</linearGradient>
			<polygon style="fill:url(#SVGID_00000039094590232917557040000008835269152165836990_);" points="183.14,521.29 929.2,521.29 
				929.2,84.79 183.14,84.79 			"/>
		</g>
		<g>
			<path class="st6" d="M530.94,576.2c0,14.33,11.62,25.94,25.95,25.94c14.33,0,25.95-11.62,25.95-25.94
				c0-14.33-11.62-25.95-25.95-25.95C542.56,550.25,530.94,561.86,530.94,576.2z"/>
		</g>
		
			<linearGradient id="SVGID_00000142884441023623287620000003627942746866318488_" gradientUnits="userSpaceOnUse" x1="347.351" y1="771.066" x2="766.4198" y2="771.066">
			<stop  offset="0" style="stop-color:#FF9F55"/>
			<stop  offset="1" style="stop-color:#FFD255"/>
		</linearGradient>
		
			<rect x="347.35" y="760.39" style="fill:url(#SVGID_00000142884441023623287620000003627942746866318488_);" width="419.07" height="21.36"/>
		<g>
			<rect x="226.02" y="118.21" class="st8" width="83.55" height="8.56"/>
		</g>
		<g>
			<rect x="332.96" y="182.64" class="st8" width="60.33" height="8.56"/>
		</g>
		<g>
			<rect x="402.69" y="182.64" class="st9" width="40.03" height="8.56"/>
		</g>
		<g>
			<rect x="484.48" y="441.27" class="st9" width="40.03" height="8.56"/>
		</g>
		<g>
			<rect x="226.97" y="344.64" class="st9" width="40.03" height="8.56"/>
		</g>
		<g>
			<rect x="450.64" y="182.64" class="st8" width="96.65" height="8.56"/>
		</g>
		<g>
			<rect x="226.97" y="312.19" class="st8" width="62.11" height="8.55"/>
		</g>
		<g>
			<rect x="393.86" y="376.85" class="st8" width="62.11" height="8.56"/>
		</g>
		<g>
			<rect x="625.86" y="441.27" class="st8" width="62.11" height="8.56"/>
		</g>
		<g>
			<rect x="313.55" y="376.85" class="st8" width="37.92" height="8.56"/>
		</g>
		<g>
			<rect x="226.97" y="376.85" class="st9" width="75.12" height="8.56"/>
		</g>
		<g>
			<rect x="226.97" y="409.06" class="st8" width="41.43" height="8.55"/>
		</g>
		<g>
			<rect x="325.84" y="118.21" class="st10" width="59.32" height="8.56"/>
		</g>
		<g>
			<rect x="325.84" y="214.85" class="st9" width="59.32" height="8.56"/>
		</g>
		<g>
			<rect x="296.18" y="247.06" class="st8" width="25.34" height="8.55"/>
		</g>
		<g>
			<rect x="270.83" y="279.75" class="st10" width="56.93" height="8.56"/>
		</g>
		<g>
			<rect x="336.37" y="279.75" class="st9" width="78.59" height="8.56"/>
		</g>
		<g>
			<rect x="585.24" y="409.06" class="st9" width="78.59" height="8.55"/>
		</g>
		<g>
			<rect x="226.97" y="247.3" class="st9" width="59.32" height="8.56"/>
		</g>
		<g>
			<rect x="226.97" y="279.75" class="st9" width="35.2" height="8.56"/>
		</g>
		<g>
			<rect x="333.47" y="247.3" class="st11" width="33.2" height="8.56"/>
		</g>
		<g>
			<rect x="227.96" y="441.27" class="st11" width="33.21" height="8.56"/>
		</g>
		<g>
			<rect x="226.73" y="182.64" class="st10" width="59.32" height="8.56"/>
		</g>
		<g>
			<rect x="279.19" y="344.64" class="st10" width="59.32" height="8.56"/>
		</g>
		<g>
			<rect x="279.92" y="409.06" class="st10" width="59.32" height="8.55"/>
		</g>
		<g>
			<rect x="385.29" y="409.06" class="st10" width="59.32" height="8.55"/>
		</g>
		<g>
			<rect x="226.73" y="214.85" class="st10" width="84.56" height="8.56"/>
		</g>
		<g>
			<rect x="622.97" y="118.21" class="st10" width="59.32" height="8.56"/>
		</g>
		<g>
			<rect x="411.66" y="441.27" class="st10" width="59.32" height="8.56"/>
		</g>
		<g>
			<rect x="700.74" y="118.21" class="st10" width="39.71" height="8.56"/>
		</g>
		<g>
			<rect x="835.08" y="150.42" class="st10" width="39.71" height="8.56"/>
		</g>
		<g>
			<rect x="401.12" y="118.21" class="st9" width="75.57" height="8.56"/>
		</g>
		<g>
			<rect x="700.74" y="441.27" class="st9" width="75.57" height="8.56"/>
		</g>
		<g>
			<rect x="273.71" y="441.27" class="st9" width="75.57" height="8.56"/>
		</g>
		<g>
			<rect x="695.57" y="150.42" class="st9" width="75.57" height="8.56"/>
		</g>
		<g>
			<rect x="602.89" y="182.64" class="st9" width="75.57" height="8.56"/>
		</g>
		<g>
			<rect x="537.22" y="441.27" class="st9" width="75.57" height="8.56"/>
		</g>
		<g>
			<rect x="525.59" y="376.85" class="st9" width="75.57" height="8.56"/>
		</g>
		<g>
			<rect x="504.5" y="214.85" class="st9" width="75.57" height="8.56"/>
		</g>
		<g>
			<rect x="363.33" y="376.85" class="st11" width="16.29" height="8.56"/>
		</g>
		<g>
			<rect x="687.97" y="182.64" class="st10" width="53.72" height="8.56"/>
		</g>
		<g>
			<rect x="532.59" y="118.21" class="st11" width="75.57" height="8.56"/>
		</g>
		<g>
			<rect x="446.36" y="214.85" class="st11" width="44.31" height="8.56"/>
		</g>
		<g>
			<rect x="411.66" y="345.12" class="st11" width="44.31" height="8.56"/>
		</g>
		<g>
			<rect x="490.67" y="118.21" class="st8" width="27.66" height="8.56"/>
		</g>
		<g>
			<rect x="401.12" y="214.85" class="st8" width="27.66" height="8.56"/>
		</g>
		<g>
			<rect x="789.37" y="150.42" class="st8" width="27.66" height="8.56"/>
		</g>
		<g>
			<rect x="226.02" y="150.42" class="st9" width="43.27" height="8.56"/>
		</g>
		<g>
			<rect x="341.49" y="312.43" class="st9" width="34.17" height="8.56"/>
		</g>
		<g>
			<rect x="279.92" y="150.42" class="st9" width="13.98" height="8.56"/>
		</g>
		<g>
			<rect x="566.79" y="150.42" class="st8" width="115.5" height="8.56"/>
		</g>
		<g>
			<rect x="455.97" y="409.06" class="st8" width="115.5" height="8.55"/>
		</g>
		<g>
			<rect x="304.16" y="150.42" class="st11" width="14.26" height="8.56"/>
		</g>
		<g>
			<rect x="518.33" y="150.42" class="st9" width="37.78" height="8.56"/>
		</g>
		<g>
			<rect x="556.11" y="182.64" class="st11" width="37.79" height="8.56"/>
		</g>
		<g>
			<rect x="471.78" y="376.85" class="st11" width="37.78" height="8.56"/>
		</g>
		<g>
			<rect x="361.82" y="441.27" class="st11" width="37.79" height="8.56"/>
		</g>
		<g>
			<rect x="427.93" y="150.42" class="st9" width="80.4" height="8.56"/>
		</g>
		<g>
			<rect x="615" y="376.85" class="st9" width="80.4" height="8.56"/>
		</g>
		<g>
			<rect x="353.09" y="345.12" class="st9" width="46.97" height="8.56"/>
		</g>
		<g>
			<rect x="350.07" y="409.06" class="st9" width="23.49" height="8.55"/>
		</g>
		<g>
			<rect x="388.86" y="150.42" class="st10" width="27.66" height="8.56"/>
		</g>
		<g>
			<rect x="674.14" y="409.06" class="st11" width="27.66" height="8.55"/>
		</g>
		<g>
			<rect x="295.75" y="182.64" class="st11" width="27.66" height="8.56"/>
		</g>
		<g>
			<rect x="301.26" y="312.43" class="st11" width="27.66" height="8.56"/>
		</g>
		<g>
			<rect x="330.11" y="150.42" class="st9" width="48.19" height="8.56"/>
		</g>
		<g>
			<g>
				<g>
					<path class="st12" d="M215.43,474.65c-0.01,0-0.02-0.01-0.03,0C215.55,474.72,215.57,474.72,215.43,474.65z"/>
				</g>
			</g>
		</g>
	</g>
	<g>
		<g>
			<g>
				<path class="st13" d="M701.55,865.42c0,0-9.85,24.33-6.38,26.87c3.47,2.54,15.38-7.79,18.54-18.7
					C716.87,862.68,701.55,865.42,701.55,865.42z"/>
			</g>
			<g>
				<path class="st14" d="M902.76,1029.58c-43.57-0.01-89.05-0.01-132.04-0.02c-1.66-4-3.42-8.2-5.26-12.47
					c-11.92-27.77-26.88-59.04-35.21-62.76c-15.32-6.85-24.54-0.86-43.6-23.1c-19.06-22.25-31.19-29.81-23.7-34.95
					c7.49-5.13,32.21,14.16,39.07,13.33c5.51-0.67,8.37-14.02,7.92-28.11c-0.11-3.69-0.46-7.42-1.05-10.99v-0.01
					c-0.29-1.8-0.65-3.56-1.06-5.25c-0.65-2.64-1.46-5.12-2.42-7.32c-1.87-4.28-1.71-7.21-0.28-9.17c4.28-5.89,19.9-3.05,25.8-1.65
					c2.63,0.63,10.78-4.31,16.48-1.5c8.85,4.36,14.01-0.67,19.88,3.11c4.16,2.67,12.71,3.93,15.66,7.78
					c5.61,7.34,7,22.87,12.47,37.23c5.06,13.29,6.82,27.23,24.18,50.75c7.74,10.48,31.68,34.8,55.86,58.56
					C884.85,1012.27,894.25,1021.39,902.76,1029.58z"/>
			</g>
			<g>
				<path class="st14" d="M705.03,848.73c0,0-36.35,29.76-31.63,33.75c4.72,3.99,16.71,0.07,36.32-12.5
					C729.33,857.43,705.03,848.73,705.03,848.73z"/>
			</g>
		</g>
		<g>
			<path class="st15" d="M913.66,1029.58h-10.89c-43.57-0.01-89.05-0.01-132.04-0.02h-12.85l-1.49-3.09c0,0,3.03-4.1,9.08-9.39
				c15.88-13.89,52.58-36.03,110.01-14.03c2.55,0.98,5.15,2.04,7.78,3.2L913.66,1029.58z"/>
		</g>
	</g>
	<g>
		<g>
			<g>
				<path class="st13" d="M379.9,874.95c0,0,6.31,25.48,2.51,27.51c-3.79,2.03-14.13-9.89-15.71-21.14
					C365.12,870.08,379.9,874.95,379.9,874.95z"/>
			</g>
			<g>
				<path class="st14" d="M385.35,942.21c-22.01,19.33-30.3,12.1-46.43,16.71c-8.76,2.51-27.99,31.34-43.72,57.15
					c-1.35,2.21-2.66,4.39-3.95,6.54c-51.93-0.19-103.97-0.37-151.91-0.54c12.99-9.27,30.99-22.22,48.92-35.43
					c27.3-20.1,54.45-40.8,63.59-50.09c20.51-20.84,24.22-34.38,31.11-46.83c7.34-13.26,7.13-28.87,17.26-28.71
					c5,0.08,9.4-6.44,14.01-8.56c6.35-2.91,12.42,3.56,21.8,0.5c6.05-1.97,14.33,3.37,17.02,3.12c5.18-0.47,17.72-2.39,23.39,0.53
					c3.15,1.62,4.19,4.72,0.68,10.39c-1.26,2.04-2.41,4.38-3.43,6.9c-0.58,1.43-1.12,2.92-1.61,4.46
					c-1.17,3.63-2.11,7.49-2.78,11.33c-2.44,13.89-1.48,27.5,3.87,28.95c6.67,1.8,34.27-16.72,40.96-10.58
					C420.83,914.19,407.36,922.89,385.35,942.21z"/>
			</g>
			<g>
				<path class="st14" d="M375.87,856.44c0,0,54.9,16.35,52.04,21.84c-2.85,5.49-31.58,4.55-54.49,0.36
					C350.51,874.45,375.87,856.44,375.87,856.44z"/>
			</g>
		</g>
		<g>
			<path class="st15" d="M300.31,1022.65c-3.02-0.01-6.04-0.02-9.06-0.03c-51.93-0.19-103.97-0.37-151.91-0.54
				c-6.2-0.02-12.34-0.04-18.4-0.07l59.17-33.29c2.77-0.77,5.49-1.46,8.15-2.07c59.97-13.67,93.18,13.44,106.93,29.43
				C297.38,1018.62,299.07,1020.88,300.31,1022.65z"/>
		</g>
	</g>
</g>
</svg>
